<svg version="1" xmlns="http://www.w3.org/2000/svg" width="1365.333" height="1365.333" viewBox="0 0 1024.000000 1024.000000"><path d="M0 512v512h1024V0H0v512zm742.7-106.3c-.3 249-.1 236.3-5.6 266.5-7.7 41.5-22.7 75.4-45.7 102.8-31 37-77.2 62.4-133.9 73.4-32 6.2-85.4 7.6-116 3.1-41-6.1-74.1-17.5-106.5-36.8-25.9-15.4-53.4-39.1-72-61.9l-6.3-7.8 3.9-4.2c2.1-2.4 24.4-27.1 49.7-55l45.8-50.7 13.7 13.8c32.4 32.5 66 50.6 98.1 53 11.9.9 31.1-.3 41.1-2.4 4.1-.9 11.6-3.6 16.5-6 20.1-9.6 31.7-27.4 37.7-57.8l2.3-11.2.3-150.3.3-150.2H313V176h430.1l-.4 229.7z"/></svg>